<?xml version="1.0" encoding="utf-8" standalone="no"?>
<!DOCTYPE svg PUBLIC "-//W3C//DTD SVG 1.1//EN"
  "http://www.w3.org/Graphics/SVG/1.1/DTD/svg11.dtd">
<svg xmlns:xlink="http://www.w3.org/1999/xlink" width="605.575pt" height="396.243437pt" viewBox="0 0 605.575 396.243437" xmlns="http://www.w3.org/2000/svg" version="1.1">
 <metadata>
  <rdf:RDF xmlns:dc="http://purl.org/dc/elements/1.1/" xmlns:cc="http://creativecommons.org/ns#" xmlns:rdf="http://www.w3.org/1999/02/22-rdf-syntax-ns#">
   <cc:Work>
    <dc:type rdf:resource="http://purl.org/dc/dcmitype/StillImage"/>
    <dc:date>2026-06-03T17:31:54.431564</dc:date>
    <dc:format>image/svg+xml</dc:format>
    <dc:creator>
     <cc:Agent>
      <dc:title>Matplotlib v3.10.9, https://matplotlib.org/</dc:title>
     </cc:Agent>
    </dc:creator>
   </cc:Work>
  </rdf:RDF>
 </metadata>
 <defs>
  <style type="text/css">*{stroke-linejoin: round; stroke-linecap: butt}</style>
 </defs>
 <g id="figure_1">
  <g id="patch_1">
   <path d="M 0 396.243437 
L 605.575 396.243437 
L 605.575 0 
L 0 0 
z
" style="fill: #f8fafc"/>
  </g>
  <g id="axes_1">
   <g id="patch_2">
    <path d="M 43.905 355.292187 
L 598.375 355.292187 
L 598.375 26.050937 
L 43.905 26.050937 
z
" style="fill: #ffffff"/>
   </g>
   <g id="patch_3">
    <path d="M 69.108182 355.292187 
L 213.126364 355.292187 
L 213.126364 41.729092 
L 69.108182 41.729092 
z
" clip-path="url(#p6d2668bbf4)" style="fill: #2563eb"/>
   </g>
   <g id="patch_4">
    <path d="M 249.130909 355.292187 
L 393.149091 355.292187 
L 393.149091 41.729092 
L 249.130909 41.729092 
z
" clip-path="url(#p6d2668bbf4)" style="fill: #dc2626"/>
   </g>
   <g id="patch_5">
    <path d="M 429.153636 355.292187 
L 573.171818 355.292187 
L 573.171818 41.729092 
L 429.153636 41.729092 
z
" clip-path="url(#p6d2668bbf4)" style="fill: #059669"/>
   </g>
   <g id="matplotlib.axis_1">
    <g id="xtick_1">
     <g id="line2d_1">
      <defs>
       <path id="mef8590b7c9" d="M 0 0 
L 0 3.5 
" style="stroke: #334155; stroke-width: 0.8"/>
      </defs>
      <g>
       <use xlink:href="#mef8590b7c9" x="141.117273" y="355.292187" style="fill: #334155; stroke: #334155; stroke-width: 0.8"/>
      </g>
     </g>
     <g id="text_1">
      <!-- 4 -->
      <g style="fill: #334155" transform="translate(137.784616 370.564531) scale(0.11 -0.11)">
       <defs>
        <path id="NanumGothic-34" d="M 2509 1216 
L 2509 4070 
Q 2035 3354 1568 2643 
Q 1101 1933 621 1216 
L 2509 1216 
z
M 2944 -211 
Q 2944 -301 2854 -301 
L 2598 -301 
Q 2509 -301 2509 -211 
L 2509 826 
L 397 826 
Q 262 826 240 848 
Q 218 870 218 1005 
L 218 1203 
Q 218 1261 224 1280 
Q 230 1299 262 1350 
L 2304 4397 
Q 2342 4454 2358 4464 
Q 2374 4474 2445 4474 
L 2765 4474 
Q 2899 4474 2921 4451 
Q 2944 4429 2944 4294 
L 2944 1216 
L 3578 1216 
Q 3667 1216 3667 1126 
L 3667 915 
Q 3667 826 3578 826 
L 2944 826 
L 2944 -211 
z
" transform="scale(0.015625)"/>
       </defs>
       <use xlink:href="#NanumGothic-34"/>
      </g>
     </g>
    </g>
    <g id="xtick_2">
     <g id="line2d_2">
      <g>
       <use xlink:href="#mef8590b7c9" x="321.14" y="355.292187" style="fill: #334155; stroke: #334155; stroke-width: 0.8"/>
      </g>
     </g>
     <g id="text_2">
      <!-- 8 -->
      <g style="fill: #334155" transform="translate(317.807344 370.564531) scale(0.11 -0.11)">
       <defs>
        <path id="NanumGothic-38" d="M 2944 3360 
Q 2944 3725 2624 3936 
Q 2342 4134 1965 4134 
Q 1555 4134 1274 3930 
Q 966 3725 966 3360 
Q 966 3027 1286 2758 
Q 1376 2675 1526 2579 
Q 1677 2483 1882 2387 
Q 1933 2362 1965 2365 
Q 1997 2368 2061 2400 
Q 2470 2624 2707 2870 
Q 2944 3117 2944 3360 
z
M 3104 960 
Q 3104 1312 2784 1574 
Q 2682 1658 2496 1760 
Q 2310 1862 2042 1984 
Q 1958 2029 1856 1984 
Q 1606 1888 1414 1782 
Q 1222 1677 1107 1587 
Q 979 1459 899 1289 
Q 819 1120 819 928 
Q 819 538 1184 288 
Q 1517 38 1965 38 
Q 2426 38 2739 256 
Q 3104 506 3104 960 
z
M 3552 928 
Q 3552 614 3421 364 
Q 3290 115 3046 -51 
Q 2835 -192 2560 -269 
Q 2285 -346 1965 -346 
Q 1651 -346 1379 -262 
Q 1107 -179 883 -32 
Q 640 141 505 387 
Q 371 634 371 928 
Q 371 1427 704 1741 
Q 960 1984 1491 2182 
Q 518 2662 518 3411 
Q 518 3680 652 3888 
Q 787 4096 1030 4262 
Q 1235 4390 1468 4457 
Q 1702 4525 1965 4525 
Q 2272 4525 2515 4457 
Q 2758 4390 2957 4256 
Q 3398 3949 3398 3411 
Q 3398 2746 2400 2182 
Q 2662 2086 2870 1971 
Q 3078 1856 3206 1741 
Q 3552 1434 3552 928 
z
" transform="scale(0.015625)"/>
       </defs>
       <use xlink:href="#NanumGothic-38"/>
      </g>
     </g>
    </g>
    <g id="xtick_3">
     <g id="line2d_3">
      <g>
       <use xlink:href="#mef8590b7c9" x="501.162727" y="355.292187" style="fill: #334155; stroke: #334155; stroke-width: 0.8"/>
      </g>
     </g>
     <g id="text_3">
      <!-- 16 -->
      <g style="fill: #334155" transform="translate(494.497415 370.564531) scale(0.11 -0.11)">
       <defs>
        <path id="NanumGothic-31" d="M 2362 -211 
Q 2362 -301 2272 -301 
L 2010 -301 
Q 1920 -301 1920 -211 
L 1920 3949 
Q 1722 3782 1549 3635 
Q 1376 3488 1184 3322 
Q 1114 3264 1056 3334 
L 928 3488 
Q 909 3520 909 3555 
Q 909 3590 941 3616 
L 1933 4448 
Q 1958 4474 2010 4474 
L 2182 4474 
Q 2317 4474 2339 4451 
Q 2362 4429 2362 4294 
L 2362 -211 
z
" transform="scale(0.015625)"/>
        <path id="NanumGothic-36" d="M 3078 1203 
Q 3078 1722 2810 2022 
Q 2541 2330 2042 2330 
Q 1786 2330 1581 2250 
Q 1376 2170 1232 2029 
Q 1088 1888 1008 1689 
Q 928 1491 928 1254 
Q 928 768 1197 435 
Q 1491 45 1984 45 
Q 2490 45 2797 384 
Q 3078 704 3078 1203 
z
M 3245 4013 
Q 3098 4064 2909 4096 
Q 2720 4128 2534 4128 
Q 1664 4128 1248 3501 
Q 896 2976 883 2061 
Q 1024 2317 1293 2496 
Q 1626 2733 2042 2733 
Q 2624 2733 3021 2426 
Q 3526 2035 3526 1235 
Q 3526 557 3110 109 
Q 2688 -346 1971 -346 
Q 435 -346 435 1920 
Q 435 3104 909 3770 
Q 1466 4525 2586 4525 
Q 2752 4525 2934 4499 
Q 3117 4474 3270 4429 
Q 3366 4410 3354 4314 
L 3341 4077 
Q 3341 4032 3309 4016 
Q 3277 4000 3245 4013 
z
" transform="scale(0.015625)"/>
       </defs>
       <use xlink:href="#NanumGothic-31"/>
       <use xlink:href="#NanumGothic-36" transform="translate(60.599991 0)"/>
      </g>
     </g>
    </g>
    <g id="text_4">
     <!-- batch_size -->
     <g style="fill: #111827" transform="translate(289.653594 386.49625) scale(0.13 -0.13)">
      <defs>
       <path id="NanumGothic-62" d="M 3066 1478 
Q 3072 1747 3017 2003 
Q 2963 2259 2841 2464 
Q 2720 2669 2518 2793 
Q 2317 2918 2022 2918 
Q 1760 2918 1565 2806 
Q 1370 2694 1242 2496 
Q 1114 2298 1050 2035 
Q 986 1773 986 1478 
Q 986 1190 1066 924 
Q 1146 659 1283 460 
Q 1421 262 1609 144 
Q 1798 26 2022 26 
Q 2317 26 2518 150 
Q 2720 275 2841 480 
Q 2963 685 3017 947 
Q 3072 1210 3066 1478 
z
M 557 4749 
Q 557 4838 646 4838 
L 896 4838 
Q 986 4838 986 4749 
L 986 2707 
Q 1146 2970 1440 3126 
Q 1734 3283 2099 3283 
Q 3526 3283 3526 1478 
Q 3533 1120 3453 790 
Q 3373 461 3193 211 
Q 3014 -38 2742 -188 
Q 2470 -339 2099 -339 
Q 1331 -339 986 314 
L 986 -186 
Q 986 -275 896 -275 
L 646 -275 
Q 557 -275 557 -186 
L 557 4749 
z
" transform="scale(0.015625)"/>
       <path id="NanumGothic-61" d="M 2566 1530 
L 2445 1530 
Q 2086 1542 1808 1500 
Q 1530 1459 1344 1389 
Q 1075 1293 940 1104 
Q 806 915 806 653 
Q 806 493 857 355 
Q 909 218 1018 141 
Q 1210 -13 1530 -13 
Q 1754 -13 1942 76 
Q 2131 166 2272 332 
Q 2413 499 2489 745 
Q 2566 992 2566 1312 
L 2566 1530 
z
M 742 2650 
Q 710 2630 681 2640 
Q 653 2650 653 2682 
L 653 2925 
Q 653 3014 742 3059 
Q 966 3181 1219 3229 
Q 1472 3277 1773 3277 
Q 2413 3277 2707 2973 
Q 3002 2669 3002 2054 
L 3002 448 
Q 3002 256 3008 105 
Q 3014 -45 3027 -186 
Q 3027 -275 2938 -275 
L 2707 -275 
Q 2618 -275 2618 -186 
L 2618 307 
Q 2483 -19 2166 -198 
Q 1850 -378 1478 -378 
Q 832 -378 531 0 
Q 429 128 377 297 
Q 326 467 326 634 
Q 326 1024 508 1305 
Q 691 1587 1069 1728 
Q 1530 1894 2483 1894 
L 2566 1894 
L 2566 2086 
Q 2566 2490 2384 2701 
Q 2202 2912 1773 2912 
Q 1485 2912 1229 2851 
Q 973 2790 742 2650 
z
" transform="scale(0.015625)"/>
       <path id="NanumGothic-74" d="M 2208 -282 
Q 1939 -378 1677 -378 
Q 1158 -378 992 -38 
Q 883 192 883 774 
L 883 2816 
L 282 2816 
Q 192 2816 192 2906 
L 192 3098 
Q 192 3187 282 3187 
L 883 3187 
L 883 4051 
Q 883 4147 966 4147 
L 1235 4147 
Q 1318 4147 1318 4051 
L 1318 3187 
L 2029 3187 
Q 2118 3187 2118 3098 
L 2118 2906 
Q 2118 2816 2029 2816 
L 1318 2816 
L 1318 557 
Q 1318 -13 1779 -13 
Q 1958 -13 2182 64 
Q 2214 77 2243 64 
Q 2272 51 2272 13 
L 2285 -154 
Q 2298 -243 2208 -282 
z
" transform="scale(0.015625)"/>
       <path id="NanumGothic-63" d="M 2816 -301 
Q 2624 -333 2445 -345 
Q 2266 -358 2016 -358 
Q 1619 -358 1308 -217 
Q 998 -77 784 166 
Q 570 410 454 742 
Q 339 1075 339 1459 
Q 339 1850 460 2179 
Q 582 2509 809 2749 
Q 1037 2989 1353 3126 
Q 1670 3264 2067 3264 
Q 2278 3264 2451 3248 
Q 2624 3232 2822 3187 
Q 2912 3162 2906 3066 
L 2886 2861 
Q 2874 2784 2790 2803 
Q 2624 2854 2470 2876 
Q 2317 2899 2131 2899 
Q 1805 2899 1558 2793 
Q 1312 2688 1145 2496 
Q 979 2304 896 2038 
Q 813 1773 813 1459 
Q 813 1171 899 908 
Q 986 646 1149 444 
Q 1312 243 1545 124 
Q 1779 6 2080 6 
Q 2304 6 2451 25 
Q 2598 45 2784 96 
Q 2880 122 2886 51 
L 2906 -186 
Q 2912 -282 2816 -301 
z
" transform="scale(0.015625)"/>
       <path id="NanumGothic-68" d="M 3334 -186 
Q 3334 -275 3245 -275 
L 2989 -275 
Q 2899 -275 2899 -186 
L 2899 1786 
Q 2899 2093 2844 2307 
Q 2790 2522 2688 2653 
Q 2586 2784 2438 2841 
Q 2291 2899 2112 2899 
Q 1587 2899 1308 2649 
Q 1030 2400 1030 1958 
L 1030 -186 
Q 1030 -275 941 -275 
L 685 -275 
Q 595 -275 595 -186 
L 595 4730 
Q 595 4819 685 4819 
L 941 4819 
Q 1030 4819 1030 4730 
L 1030 2874 
Q 1210 3078 1475 3171 
Q 1741 3264 2138 3264 
Q 2758 3264 3046 2899 
Q 3334 2534 3334 1792 
L 3334 -186 
z
" transform="scale(0.015625)"/>
       <path id="NanumGothic-5f" d="M 3392 -794 
Q 3462 -794 3472 -803 
Q 3482 -813 3482 -883 
L 3482 -1037 
Q 3482 -1107 3472 -1116 
Q 3462 -1126 3392 -1126 
L 154 -1126 
Q 83 -1126 73 -1116 
Q 64 -1107 64 -1037 
L 64 -883 
Q 64 -813 73 -803 
Q 83 -794 154 -794 
L 3392 -794 
z
" transform="scale(0.015625)"/>
       <path id="NanumGothic-73" d="M 422 147 
Q 813 -13 1229 -13 
Q 1574 -13 1798 156 
Q 2022 326 2022 614 
Q 2022 781 1897 937 
Q 1773 1094 1594 1197 
Q 1395 1306 1187 1405 
Q 979 1504 787 1613 
Q 557 1741 448 1929 
Q 339 2118 339 2323 
Q 339 2560 428 2739 
Q 518 2918 672 3040 
Q 826 3162 1030 3219 
Q 1235 3277 1466 3277 
Q 1709 3277 1888 3251 
Q 2067 3226 2246 3174 
Q 2285 3162 2313 3136 
Q 2342 3110 2336 3066 
L 2317 2874 
Q 2310 2822 2278 2809 
Q 2246 2797 2214 2810 
Q 2054 2867 1894 2889 
Q 1734 2912 1510 2912 
Q 768 2912 768 2323 
Q 768 2195 867 2080 
Q 966 1965 1203 1850 
Q 1408 1747 1606 1654 
Q 1805 1562 2035 1434 
Q 2234 1325 2365 1101 
Q 2496 877 2496 614 
Q 2496 358 2393 172 
Q 2291 -13 2118 -134 
Q 1946 -256 1722 -317 
Q 1498 -378 1261 -378 
Q 1120 -378 1008 -371 
Q 896 -365 797 -352 
Q 698 -339 595 -320 
Q 493 -301 378 -269 
Q 288 -237 294 -154 
L 320 83 
Q 333 186 422 147 
z
" transform="scale(0.015625)"/>
       <path id="NanumGothic-69" d="M 1050 -186 
Q 1050 -275 960 -275 
L 678 -275 
Q 589 -275 589 -186 
L 589 3098 
Q 589 3187 678 3187 
L 960 3187 
Q 1050 3187 1050 3098 
L 1050 -186 
z
M 506 4397 
Q 506 4525 595 4617 
Q 685 4710 813 4710 
Q 941 4710 1033 4617 
Q 1126 4525 1126 4397 
Q 1126 4269 1033 4179 
Q 941 4090 813 4090 
Q 685 4090 595 4179 
Q 506 4269 506 4397 
z
" transform="scale(0.015625)"/>
       <path id="NanumGothic-7a" d="M 454 -275 
Q 320 -275 297 -252 
Q 275 -230 275 -96 
L 275 6 
Q 275 90 326 147 
L 2387 2816 
L 448 2816 
Q 358 2816 358 2906 
L 358 3098 
Q 358 3187 448 3187 
L 2707 3187 
Q 2842 3187 2864 3164 
Q 2886 3142 2886 3008 
L 2886 2893 
Q 2886 2810 2842 2758 
L 774 83 
L 2797 83 
Q 2886 83 2886 -6 
L 2886 -186 
Q 2886 -275 2797 -275 
L 454 -275 
z
" transform="scale(0.015625)"/>
       <path id="NanumGothic-65" d="M 2733 1696 
Q 2733 1958 2681 2163 
Q 2630 2368 2522 2534 
Q 2285 2912 1837 2912 
Q 1376 2912 1088 2528 
Q 973 2355 896 2131 
Q 819 1907 813 1696 
L 2733 1696 
z
M 813 1331 
Q 806 1011 886 764 
Q 966 518 1120 352 
Q 1274 186 1488 96 
Q 1702 6 1965 6 
Q 2221 6 2445 54 
Q 2669 102 2861 211 
Q 2944 250 2944 166 
L 2944 -122 
Q 2944 -179 2874 -211 
Q 2662 -294 2432 -336 
Q 2202 -378 1933 -378 
Q 1146 -378 742 80 
Q 339 538 339 1459 
Q 339 2272 742 2771 
Q 1165 3277 1811 3277 
Q 2170 3277 2432 3149 
Q 2694 3021 2880 2765 
Q 3206 2310 3206 1549 
Q 3206 1466 3203 1421 
Q 3200 1376 3181 1357 
Q 3162 1338 3114 1334 
Q 3066 1331 2976 1331 
L 813 1331 
z
" transform="scale(0.015625)"/>
      </defs>
      <use xlink:href="#NanumGothic-62"/>
      <use xlink:href="#NanumGothic-61" transform="translate(60.599991 0)"/>
      <use xlink:href="#NanumGothic-74" transform="translate(115.099976 0)"/>
      <use xlink:href="#NanumGothic-63" transform="translate(151.399963 0)"/>
      <use xlink:href="#NanumGothic-68" transform="translate(199.799957 0)"/>
      <use xlink:href="#NanumGothic-5f" transform="translate(260.399948 0)"/>
      <use xlink:href="#NanumGothic-73" transform="translate(314.899933 0)"/>
      <use xlink:href="#NanumGothic-69" transform="translate(357.299927 0)"/>
      <use xlink:href="#NanumGothic-7a" transform="translate(381.499924 0)"/>
      <use xlink:href="#NanumGothic-65" transform="translate(429.899918 0)"/>
     </g>
    </g>
   </g>
   <g id="matplotlib.axis_2">
    <g id="ytick_1">
     <g id="line2d_4">
      <path d="M 43.905 355.292187 
L 598.375 355.292187 
" clip-path="url(#p6d2668bbf4)" style="fill: none; stroke: #cbd5e1; stroke-opacity: 0.5; stroke-width: 0.8; stroke-linecap: square"/>
     </g>
     <g id="line2d_5">
      <defs>
       <path id="mb1aa238350" d="M 0 0 
L -3.5 0 
" style="stroke: #334155; stroke-width: 0.8"/>
      </defs>
      <g>
       <use xlink:href="#mb1aa238350" x="43.905" y="355.292187" style="fill: #334155; stroke: #334155; stroke-width: 0.8"/>
      </g>
     </g>
     <g id="text_5">
      <!-- 0 -->
      <g style="fill: #334155" transform="translate(30.239688 359.428359) scale(0.11 -0.11)">
       <defs>
        <path id="NanumGothic-30" d="M 3066 2093 
Q 3066 4102 1965 4102 
Q 864 4102 864 2093 
Q 864 77 1965 77 
Q 3066 77 3066 2093 
z
M 3526 2093 
Q 3526 -326 1965 -326 
Q 390 -326 390 2093 
Q 390 3098 698 3725 
Q 1088 4512 1965 4512 
Q 2829 4512 3226 3725 
Q 3373 3411 3449 3008 
Q 3526 2605 3526 2093 
z
" transform="scale(0.015625)"/>
       </defs>
       <use xlink:href="#NanumGothic-30"/>
      </g>
     </g>
    </g>
    <g id="ytick_2">
     <g id="line2d_6">
      <path d="M 43.905 292.579568 
L 598.375 292.579568 
" clip-path="url(#p6d2668bbf4)" style="fill: none; stroke: #cbd5e1; stroke-opacity: 0.5; stroke-width: 0.8; stroke-linecap: square"/>
     </g>
     <g id="line2d_7">
      <g>
       <use xlink:href="#mb1aa238350" x="43.905" y="292.579568" style="fill: #334155; stroke: #334155; stroke-width: 0.8"/>
      </g>
     </g>
     <g id="text_6">
      <!-- 2 -->
      <g style="fill: #334155" transform="translate(30.239688 296.71574) scale(0.11 -0.11)">
       <defs>
        <path id="NanumGothic-32" d="M 576 -301 
Q 506 -301 470 -297 
Q 435 -294 419 -278 
Q 403 -262 400 -227 
Q 397 -192 397 -122 
L 403 19 
Q 403 102 454 154 
L 1510 1318 
Q 2688 2592 2688 3251 
Q 2688 3635 2432 3891 
Q 2182 4141 1811 4141 
Q 1293 4141 730 3853 
Q 640 3808 627 3891 
L 589 4102 
Q 570 4211 653 4237 
Q 979 4384 1241 4454 
Q 1504 4525 1779 4525 
Q 2394 4525 2758 4218 
Q 3168 3885 3168 3270 
Q 3168 3034 3053 2752 
Q 2938 2470 2733 2163 
Q 2605 1984 2371 1696 
Q 2138 1408 1837 1082 
Q 1613 838 1392 588 
Q 1171 339 947 96 
L 3187 96 
Q 3277 96 3277 6 
L 3277 -211 
Q 3277 -301 3187 -301 
L 576 -301 
z
" transform="scale(0.015625)"/>
       </defs>
       <use xlink:href="#NanumGothic-32"/>
      </g>
     </g>
    </g>
    <g id="ytick_3">
     <g id="line2d_8">
      <path d="M 43.905 229.866949 
L 598.375 229.866949 
" clip-path="url(#p6d2668bbf4)" style="fill: none; stroke: #cbd5e1; stroke-opacity: 0.5; stroke-width: 0.8; stroke-linecap: square"/>
     </g>
     <g id="line2d_9">
      <g>
       <use xlink:href="#mb1aa238350" x="43.905" y="229.866949" style="fill: #334155; stroke: #334155; stroke-width: 0.8"/>
      </g>
     </g>
     <g id="text_7">
      <!-- 4 -->
      <g style="fill: #334155" transform="translate(30.239688 234.003121) scale(0.11 -0.11)">
       <use xlink:href="#NanumGothic-34"/>
      </g>
     </g>
    </g>
    <g id="ytick_4">
     <g id="line2d_10">
      <path d="M 43.905 167.15433 
L 598.375 167.15433 
" clip-path="url(#p6d2668bbf4)" style="fill: none; stroke: #cbd5e1; stroke-opacity: 0.5; stroke-width: 0.8; stroke-linecap: square"/>
     </g>
     <g id="line2d_11">
      <g>
       <use xlink:href="#mb1aa238350" x="43.905" y="167.15433" style="fill: #334155; stroke: #334155; stroke-width: 0.8"/>
      </g>
     </g>
     <g id="text_8">
      <!-- 6 -->
      <g style="fill: #334155" transform="translate(30.239688 171.290502) scale(0.11 -0.11)">
       <use xlink:href="#NanumGothic-36"/>
      </g>
     </g>
    </g>
    <g id="ytick_5">
     <g id="line2d_12">
      <path d="M 43.905 104.441711 
L 598.375 104.441711 
" clip-path="url(#p6d2668bbf4)" style="fill: none; stroke: #cbd5e1; stroke-opacity: 0.5; stroke-width: 0.8; stroke-linecap: square"/>
     </g>
     <g id="line2d_13">
      <g>
       <use xlink:href="#mb1aa238350" x="43.905" y="104.441711" style="fill: #334155; stroke: #334155; stroke-width: 0.8"/>
      </g>
     </g>
     <g id="text_9">
      <!-- 8 -->
      <g style="fill: #334155" transform="translate(30.239688 108.577883) scale(0.11 -0.11)">
       <use xlink:href="#NanumGothic-38"/>
      </g>
     </g>
    </g>
    <g id="ytick_6">
     <g id="line2d_14">
      <path d="M 43.905 41.729092 
L 598.375 41.729092 
" clip-path="url(#p6d2668bbf4)" style="fill: none; stroke: #cbd5e1; stroke-opacity: 0.5; stroke-width: 0.8; stroke-linecap: square"/>
     </g>
     <g id="line2d_15">
      <g>
       <use xlink:href="#mb1aa238350" x="43.905" y="41.729092" style="fill: #334155; stroke: #334155; stroke-width: 0.8"/>
      </g>
     </g>
     <g id="text_10">
      <!-- 10 -->
      <g style="fill: #334155" transform="translate(23.574375 45.865264) scale(0.11 -0.11)">
       <use xlink:href="#NanumGothic-31"/>
       <use xlink:href="#NanumGothic-30" transform="translate(60.599991 0)"/>
      </g>
     </g>
    </g>
    <g id="text_11">
     <!-- best epoch -->
     <g style="fill: #111827" transform="translate(17.027188 223.593047) rotate(-90) scale(0.13 -0.13)">
      <defs>
       <path id="NanumGothic-20" transform="scale(0.015625)"/>
       <path id="NanumGothic-70" d="M 2989 1504 
Q 2989 1766 2937 2012 
Q 2886 2259 2764 2451 
Q 2643 2643 2451 2761 
Q 2259 2880 1971 2880 
Q 1709 2880 1517 2771 
Q 1325 2662 1200 2473 
Q 1075 2285 1011 2035 
Q 947 1786 947 1504 
Q 947 762 1225 381 
Q 1504 0 1971 0 
Q 2214 0 2403 105 
Q 2592 211 2723 409 
Q 2854 608 2921 883 
Q 2989 1158 2989 1504 
z
M 518 3098 
Q 518 3187 608 3187 
L 851 3187 
Q 941 3187 941 3098 
L 909 2618 
Q 1037 2899 1341 3072 
Q 1645 3245 2048 3245 
Q 2426 3245 2691 3110 
Q 2957 2976 3126 2742 
Q 3296 2509 3376 2189 
Q 3456 1869 3456 1504 
Q 3456 1107 3363 768 
Q 3270 429 3094 179 
Q 2918 -70 2656 -214 
Q 2394 -358 2048 -358 
Q 1658 -358 1376 -208 
Q 1094 -58 947 211 
L 947 -1165 
Q 947 -1254 858 -1254 
L 614 -1254 
Q 576 -1254 547 -1228 
Q 518 -1203 518 -1165 
L 518 3098 
z
" transform="scale(0.015625)"/>
       <path id="NanumGothic-6f" d="M 3130 1453 
Q 3130 1754 3050 2016 
Q 2970 2278 2829 2483 
Q 2496 2893 1965 2893 
Q 1696 2893 1481 2787 
Q 1267 2682 1101 2483 
Q 954 2278 874 2016 
Q 794 1754 794 1453 
Q 794 1146 874 883 
Q 954 621 1101 422 
Q 1440 6 1965 6 
Q 2234 6 2448 115 
Q 2662 224 2829 422 
Q 2970 621 3050 883 
Q 3130 1146 3130 1453 
z
M 3603 1453 
Q 3603 1075 3494 752 
Q 3386 429 3206 186 
Q 2982 -83 2672 -230 
Q 2362 -378 1965 -378 
Q 1568 -378 1254 -230 
Q 941 -83 717 186 
Q 538 429 432 752 
Q 326 1075 326 1453 
Q 326 2227 717 2720 
Q 1165 3277 1965 3277 
Q 2368 3277 2675 3139 
Q 2982 3002 3206 2720 
Q 3603 2214 3603 1453 
z
" transform="scale(0.015625)"/>
      </defs>
      <use xlink:href="#NanumGothic-62"/>
      <use xlink:href="#NanumGothic-65" transform="translate(60.599991 0)"/>
      <use xlink:href="#NanumGothic-73" transform="translate(115.099976 0)"/>
      <use xlink:href="#NanumGothic-74" transform="translate(157.499969 0)"/>
      <use xlink:href="#NanumGothic-20" transform="translate(193.799957 0)"/>
      <use xlink:href="#NanumGothic-65" transform="translate(221.799942 0)"/>
      <use xlink:href="#NanumGothic-70" transform="translate(276.299927 0)"/>
      <use xlink:href="#NanumGothic-6f" transform="translate(336.899918 0)"/>
      <use xlink:href="#NanumGothic-63" transform="translate(397.499908 0)"/>
      <use xlink:href="#NanumGothic-68" transform="translate(445.899902 0)"/>
     </g>
    </g>
   </g>
   <g id="patch_6">
    <path d="M 43.905 355.292187 
L 43.905 26.050937 
" style="fill: none; stroke: #cbd5e1; stroke-width: 0.8; stroke-linejoin: miter; stroke-linecap: square"/>
   </g>
   <g id="patch_7">
    <path d="M 598.375 355.292187 
L 598.375 26.050937 
" style="fill: none; stroke: #cbd5e1; stroke-width: 0.8; stroke-linejoin: miter; stroke-linecap: square"/>
   </g>
   <g id="patch_8">
    <path d="M 43.905 355.292187 
L 598.375 355.292187 
" style="fill: none; stroke: #cbd5e1; stroke-width: 0.8; stroke-linejoin: miter; stroke-linecap: square"/>
   </g>
   <g id="patch_9">
    <path d="M 43.905 26.050937 
L 598.375 26.050937 
" style="fill: none; stroke: #cbd5e1; stroke-width: 0.8; stroke-linejoin: miter; stroke-linecap: square"/>
   </g>
   <g id="text_12">
    <!-- 10 -->
    <g transform="translate(134.45196 39.57378) scale(0.11 -0.11)">
     <use xlink:href="#NanumGothic-31"/>
     <use xlink:href="#NanumGothic-30" transform="translate(60.599991 0)"/>
    </g>
   </g>
   <g id="text_13">
    <!-- 10 -->
    <g transform="translate(314.474687 39.57378) scale(0.11 -0.11)">
     <use xlink:href="#NanumGothic-31"/>
     <use xlink:href="#NanumGothic-30" transform="translate(60.599991 0)"/>
    </g>
   </g>
   <g id="text_14">
    <!-- 10 -->
    <g transform="translate(494.497415 39.57378) scale(0.11 -0.11)">
     <use xlink:href="#NanumGothic-31"/>
     <use xlink:href="#NanumGothic-30" transform="translate(60.599991 0)"/>
    </g>
   </g>
   <g id="text_15">
    <!-- Best Epoch by Batch Size -->
    <g transform="translate(224.020859 20.050937) scale(0.17 -0.17)">
     <defs>
      <path id="NanumGothic-42" d="M 2784 3277 
Q 2784 4064 1741 4064 
L 1088 4064 
L 1088 2394 
L 1619 2394 
Q 2202 2394 2493 2624 
Q 2784 2854 2784 3277 
z
M 2931 1050 
Q 2931 1523 2585 1753 
Q 2240 1984 1491 1984 
L 1075 1984 
L 1075 128 
L 1568 128 
Q 2931 128 2931 1050 
z
M 3405 1075 
Q 3405 -275 1555 -275 
L 781 -275 
Q 646 -275 624 -252 
Q 602 -230 602 -96 
L 602 4282 
Q 602 4416 624 4438 
Q 646 4461 781 4461 
L 1741 4461 
Q 3258 4461 3258 3296 
Q 3258 2406 2413 2214 
Q 2899 2074 3152 1789 
Q 3405 1504 3405 1075 
z
" transform="scale(0.015625)"/>
      <path id="NanumGothic-45" d="M 826 -282 
Q 691 -282 668 -259 
Q 646 -237 646 -102 
L 646 4307 
Q 646 4429 668 4451 
Q 691 4474 813 4474 
L 3034 4474 
Q 3123 4474 3123 4384 
L 3123 4160 
Q 3123 4070 3034 4070 
L 1114 4070 
L 1114 2381 
L 2938 2381 
Q 3027 2381 3027 2291 
L 3027 2061 
Q 3027 1971 2938 1971 
L 1114 1971 
L 1114 128 
L 3110 128 
Q 3200 128 3200 38 
L 3200 -192 
Q 3200 -282 3110 -282 
L 826 -282 
z
" transform="scale(0.015625)"/>
      <path id="NanumGothic-79" d="M 301 -1222 
Q 224 -1203 237 -1126 
L 256 -909 
Q 256 -832 333 -864 
Q 435 -902 570 -902 
Q 704 -902 816 -860 
Q 928 -819 986 -749 
Q 1056 -659 1142 -454 
Q 1229 -250 1312 13 
Q 1024 794 742 1555 
Q 461 2317 173 3098 
Q 160 3130 173 3158 
Q 186 3187 224 3187 
L 525 3187 
Q 614 3187 653 3098 
L 1517 614 
Q 1754 1267 1968 1859 
Q 2182 2451 2419 3098 
Q 2451 3187 2547 3187 
L 2822 3187 
Q 2861 3187 2873 3158 
Q 2886 3130 2874 3098 
L 1542 -474 
Q 1472 -659 1385 -806 
Q 1299 -954 1210 -1043 
Q 1094 -1152 953 -1206 
Q 813 -1261 659 -1261 
Q 563 -1261 486 -1254 
Q 410 -1248 301 -1222 
z
" transform="scale(0.015625)"/>
      <path id="NanumGothic-53" d="M 550 -211 
Q 448 -179 467 -96 
L 493 198 
Q 506 250 534 269 
Q 563 288 602 262 
Q 826 141 1053 86 
Q 1280 32 1574 32 
Q 2042 32 2339 288 
Q 2637 544 2637 1011 
Q 2637 1197 2493 1382 
Q 2349 1568 2093 1734 
Q 1869 1875 1587 2028 
Q 1306 2182 1050 2364 
Q 794 2547 621 2774 
Q 448 3002 448 3302 
Q 448 3610 576 3843 
Q 704 4077 918 4233 
Q 1133 4390 1408 4473 
Q 1683 4557 1971 4557 
Q 2221 4557 2413 4528 
Q 2605 4499 2829 4429 
Q 2925 4397 2906 4314 
L 2854 4064 
Q 2835 3955 2746 4006 
Q 2566 4090 2396 4118 
Q 2227 4147 1965 4147 
Q 1754 4147 1565 4096 
Q 1376 4045 1238 3942 
Q 1101 3840 1017 3686 
Q 934 3533 934 3322 
Q 934 3155 1046 3008 
Q 1158 2861 1321 2733 
Q 1485 2605 1673 2499 
Q 1862 2394 2016 2304 
Q 2227 2182 2425 2054 
Q 2624 1926 2777 1766 
Q 2931 1606 3027 1414 
Q 3123 1222 3123 973 
Q 3123 653 2992 403 
Q 2861 154 2643 -19 
Q 2426 -192 2141 -285 
Q 1856 -378 1549 -378 
Q 1267 -378 1046 -339 
Q 826 -301 550 -211 
z
" transform="scale(0.015625)"/>
     </defs>
     <use xlink:href="#NanumGothic-42"/>
     <use xlink:href="#NanumGothic-65" transform="translate(60.599991 0)"/>
     <use xlink:href="#NanumGothic-73" transform="translate(115.099976 0)"/>
     <use xlink:href="#NanumGothic-74" transform="translate(157.499969 0)"/>
     <use xlink:href="#NanumGothic-20" transform="translate(193.799957 0)"/>
     <use xlink:href="#NanumGothic-45" transform="translate(221.799942 0)"/>
     <use xlink:href="#NanumGothic-70" transform="translate(279.399933 0)"/>
     <use xlink:href="#NanumGothic-6f" transform="translate(339.999924 0)"/>
     <use xlink:href="#NanumGothic-63" transform="translate(400.599915 0)"/>
     <use xlink:href="#NanumGothic-68" transform="translate(448.999908 0)"/>
     <use xlink:href="#NanumGothic-20" transform="translate(509.599899 0)"/>
     <use xlink:href="#NanumGothic-62" transform="translate(537.599884 0)"/>
     <use xlink:href="#NanumGothic-79" transform="translate(598.199875 0)"/>
     <use xlink:href="#NanumGothic-20" transform="translate(644.599869 0)"/>
     <use xlink:href="#NanumGothic-42" transform="translate(672.599854 0)"/>
     <use xlink:href="#NanumGothic-61" transform="translate(733.199844 0)"/>
     <use xlink:href="#NanumGothic-74" transform="translate(787.699829 0)"/>
     <use xlink:href="#NanumGothic-63" transform="translate(823.999817 0)"/>
     <use xlink:href="#NanumGothic-68" transform="translate(872.399811 0)"/>
     <use xlink:href="#NanumGothic-20" transform="translate(932.999802 0)"/>
     <use xlink:href="#NanumGothic-53" transform="translate(960.999786 0)"/>
     <use xlink:href="#NanumGothic-69" transform="translate(1015.499771 0)"/>
     <use xlink:href="#NanumGothic-7a" transform="translate(1039.699768 0)"/>
     <use xlink:href="#NanumGothic-65" transform="translate(1088.099762 0)"/>
    </g>
   </g>
  </g>
 </g>
 <defs>
  <clipPath id="p6d2668bbf4">
   <rect x="43.905" y="26.050937" width="554.47" height="329.24125"/>
  </clipPath>
 </defs>
</svg>
